<svg width="362" height="80" viewBox="0 0 362 80" fill="none" xmlns="http://www.w3.org/2000/svg">
<path d="M320.982 56.6409L332.942 44.2758L303.041 14.3597H194.198L189.016 9.17424C189.016 8.90833 188.883 8.77536 188.617 8.77536H172.67C172.404 8.77536 172.271 8.90833 172.271 9.17424L167.089 14.3597H58.2467L28.3457 44.2758L40.3062 56.6409L49.4754 65.8153H167.089L172.271 71.0006H172.67H188.617H189.016L194.198 65.8153H311.812L320.982 56.6409Z" fill="#9C8F00" fill-opacity="0.1"/>
<path fill-rule="evenodd" clip-rule="evenodd" d="M45.4892 25.1295L46.6856 23.9328L57.8479 12.7642H58.2467H94.5283C94.2624 12.4982 94.2624 12.2323 94.5283 11.9664L100.907 5.58432H101.306H161.506L166.69 0H167.089H194.597H194.996L200.579 5.58432H260.381H261.178L267.158 11.9664C267.424 12.2323 267.557 12.4982 267.557 12.7642H303.44H303.838L315 23.9328L316.197 25.1295L334.537 43.478H361.247L347.294 57.4387H322.177L313.009 66.613H312.61H270.349L263.97 72.9951C263.97 73.2611 263.837 73.3941 263.571 73.3941H200.976L194.996 79.3772H194.597H167.089H166.69L160.711 73.3941H104.095C103.829 73.3941 103.698 73.2611 103.698 72.9951L97.3177 66.613H49.4754H48.6789L39.9076 57.4387H14.3916L0.4375 43.478H27.1499L45.4892 25.1295ZM320.982 56.6409L332.942 44.2758L303.041 14.3597H194.198L189.016 9.17424C189.016 8.90833 188.883 8.77536 188.617 8.77536H172.67C172.404 8.77536 172.271 8.90833 172.271 9.17424L167.089 14.3597H58.2467L28.3457 44.2758L40.3062 56.6409L49.4754 65.8153H167.089L172.271 71.0006H172.67H188.617H189.016L194.198 65.8153H311.812L320.982 56.6409Z" fill="#DAD300"/>
</svg>
