<svg width="362" height="80" viewBox="0 0 362 80" fill="none" xmlns="http://www.w3.org/2000/svg">
<path d="M321.138 56.6409L333.098 44.2758L303.197 14.3597H194.355L189.173 9.17424C189.173 8.90833 189.04 8.77536 188.774 8.77536H172.826C172.56 8.77536 172.428 8.90833 172.428 9.17424L167.245 14.3597H58.403L28.5019 44.2758L40.4625 56.6409L49.6317 65.8153H167.245L172.428 71.0006H172.826H188.774H189.173L194.355 65.8153H311.968L321.138 56.6409Z" fill="#9C0000" fill-opacity="0.1"/>
<path fill-rule="evenodd" clip-rule="evenodd" d="M45.6455 25.1295L46.8419 23.9328L58.0042 12.7642H58.403H94.6845C94.4186 12.4982 94.4186 12.2323 94.6845 11.9664L101.063 5.58432H101.462H161.662L166.847 0H167.245H194.754H195.152L200.735 5.58432H260.537H261.335L267.314 11.9664C267.58 12.2323 267.713 12.4982 267.713 12.7642H303.596H303.995L315.157 23.9328L316.353 25.1295L334.693 43.478H361.404L347.45 57.4387H322.333L313.165 66.613H312.766H270.505L264.126 72.9951C264.126 73.2611 263.993 73.3941 263.727 73.3941H201.132L195.152 79.3772H194.754H167.245H166.847L160.867 73.3941H104.251C103.985 73.3941 103.855 73.2611 103.855 72.9951L97.4739 66.613H49.6317H48.8352L40.0639 57.4387H14.5478L0.59375 43.478H27.3062L45.6455 25.1295ZM321.138 56.6409L333.098 44.2758L303.197 14.3597H194.355L189.173 9.17424C189.173 8.90833 189.04 8.77536 188.774 8.77536H172.826C172.56 8.77536 172.428 8.90833 172.428 9.17424L167.245 14.3597H58.403L28.5019 44.2758L40.4625 56.6409L49.6317 65.8153H167.245L172.428 71.0006H172.826H188.774H189.173L194.355 65.8153H311.968L321.138 56.6409Z" fill="#A50000"/>
</svg>
