<svg width="737" height="66" viewBox="0 0 737 66" fill="none" xmlns="http://www.w3.org/2000/svg">
<path d="M339.863 51H328.855L315.543 38.52H308.247V51H300.695V17.976H328.983C333.933 17.976 336.408 20.1093 336.408 24.376V32.12C336.408 35.32 335.128 37.304 332.568 38.072C331.586 38.3707 328.941 38.52 324.632 38.52L339.863 51ZM328.983 30.264V26.296C328.983 25.1867 328.663 24.4613 328.023 24.12C327.554 23.8213 326.722 23.672 325.528 23.672H308.247V32.888H325.528C326.722 32.888 327.554 32.7387 328.023 32.44C328.663 32.0987 328.983 31.3733 328.983 30.264ZM395.848 43.192C395.848 46.264 395.251 48.3333 394.056 49.4C392.904 50.4667 390.771 51 387.656 51H363.336C360.221 51 358.067 50.4667 356.872 49.4C355.72 48.3333 355.144 46.264 355.144 43.192V25.784C355.144 22.712 355.72 20.6427 356.872 19.576C358.067 18.5093 360.221 17.976 363.336 17.976H387.656C390.771 17.976 392.904 18.5093 394.056 19.576C395.251 20.6427 395.848 22.712 395.848 25.784V43.192ZM388.168 44.792V23.864H362.824V44.792H388.168ZM451.843 44.536C451.843 48.8453 448.601 51 442.116 51H415.875V17.976H444.163C449.113 17.976 451.588 20.1093 451.588 24.376V28.408C451.588 31.6507 449.689 33.5067 445.891 33.976C449.859 34.488 451.843 36.6 451.843 40.312V44.536ZM444.484 28.856V25.72C444.484 24.1413 443.31 23.352 440.964 23.352H423.427V31.224H440.964C443.31 31.224 444.484 30.4347 444.484 28.856ZM444.675 42.104V39.608C444.675 38.3707 444.377 37.5813 443.779 37.24C443.225 36.856 442.286 36.664 440.964 36.664H423.427V45.048H440.964C442.286 45.048 443.225 44.8773 443.779 44.536C444.377 44.152 444.675 43.3413 444.675 42.104ZM510.528 43.192C510.528 46.264 509.931 48.3333 508.736 49.4C507.584 50.4667 505.451 51 502.336 51H478.016C474.901 51 472.747 50.4667 471.552 49.4C470.4 48.3333 469.824 46.264 469.824 43.192V25.784C469.824 22.712 470.4 20.6427 471.552 19.576C472.747 18.5093 474.901 17.976 478.016 17.976H502.336C505.451 17.976 507.584 18.5093 508.736 19.576C509.931 20.6427 510.528 22.712 510.528 25.784V43.192ZM502.848 44.792V23.864H477.504V44.792H502.848ZM561.147 23.864H545.915V51H538.235V23.864H523.067V17.976H561.147V23.864ZM613.564 51H602.556L589.244 38.52H581.948V51H574.396V17.976H602.684C607.633 17.976 610.108 20.1093 610.108 24.376V32.12C610.108 35.32 608.828 37.304 606.268 38.072C605.286 38.3707 602.641 38.52 598.332 38.52L613.564 51ZM602.684 30.264V26.296C602.684 25.1867 602.364 24.4613 601.724 24.12C601.254 23.8213 600.422 23.672 599.228 23.672H581.948V32.888H599.228C600.422 32.888 601.254 32.7387 601.724 32.44C602.364 32.0987 602.684 31.3733 602.684 30.264ZM669.548 43.192C669.548 46.264 668.951 48.3333 667.756 49.4C666.604 50.4667 664.471 51 661.356 51H637.036C633.921 51 631.767 50.4667 630.572 49.4C629.42 48.3333 628.844 46.264 628.844 43.192V25.784C628.844 22.712 629.42 20.6427 630.572 19.576C631.767 18.5093 633.921 17.976 637.036 17.976H661.356C664.471 17.976 666.604 18.5093 667.756 19.576C668.951 20.6427 669.548 22.712 669.548 25.784V43.192ZM661.868 44.792V23.864H636.524V44.792H661.868ZM728.36 51H723.112L698.856 30.584C697.832 29.7307 696.914 28.8347 696.104 27.896C696.317 30.0293 696.424 31.7147 696.424 32.952V51H689.512V17.976H694.76L717.992 37.432C719.656 38.84 720.914 40.0347 721.768 41.016C721.554 37.944 721.448 36.0453 721.448 35.32V17.976H728.36V51Z" fill="#F40004"/>
<path d="M42.5712 51H8.45925V17.976H42.2512V23.608H16.1392V30.968H31.3712V36.6H16.1392V44.792H42.5712V51ZM91.0757 23.928L75.3957 51H70.8517L54.4677 23.928H61.9557L73.4117 43.576L84.2277 23.928H91.0757ZM131.833 51H102.457V23.928H131.513V28.728H109.113V34.616H122.169V39.288H109.113V45.944H131.833V51ZM178.707 51H174.163L151.251 32.76V51H145.235V23.928H149.779L172.755 41.912V23.928H178.707V51ZM223.885 28.792H210.765V51H204.173V28.792H191.117V23.928H223.885V28.792ZM274.353 31.416C274.353 32.44 274.225 33.1013 273.969 33.4C273.713 33.656 273.052 33.784 271.985 33.784H265.969C264.945 33.784 264.433 32.9947 264.433 31.416V26.232C264.433 25.208 264.561 24.568 264.817 24.312C265.073 24.0133 265.735 23.864 266.801 23.864H272.817C273.841 23.864 274.353 24.6533 274.353 26.232V31.416ZM274.353 48.632C274.353 49.656 274.225 50.3173 273.969 50.616C273.713 50.872 273.052 51 271.985 51H265.969C264.945 51 264.433 50.2107 264.433 48.632V43.448C264.433 42.424 264.561 41.784 264.817 41.528C265.073 41.2293 265.735 41.08 266.801 41.08H272.817C273.841 41.08 274.353 41.8693 274.353 43.448V48.632Z" fill="white"/>
</svg>
